<?xml version="1.0" encoding="UTF-8" standalone="no"?>
<!-- Created with Inkscape (http://www.inkscape.org/) -->
<svg xmlns:inkscape="http://www.inkscape.org/namespaces/inkscape" xmlns:rdf="http://www.w3.org/1999/02/22-rdf-syntax-ns#" xmlns="http://www.w3.org/2000/svg" xmlns:xlink="http://www.w3.org/1999/xlink" xmlns:ns1="http://sozi.baierouge.fr" xmlns:cc="http://creativecommons.org/ns#" xmlns:sodipodi="http://sodipodi.sourceforge.net/DTD/sodipodi-0.dtd" xmlns:dc="http://purl.org/dc/elements/1.1/" id="svg2" xml:space="preserve" viewBox="0 0 64.52 32.042" version="1.1" inkscape:version="0.91 r13725">
  <defs id="defs6">
    <linearGradient id="linearGradient28" y2="-726.08" gradientUnits="userSpaceOnUse" x2="-805.39" gradientTransform="matrix(.63770 -.054144 .073728 .63603 620.77 434.68)" y1="-726.08" x1="-819.86">
      <stop id="stop30" style="stop-color:#692010" offset="0"/>
      <stop id="stop32" style="stop-color:#7d210e" offset="1"/>
    </linearGradient>
    <linearGradient id="linearGradient50" y2="-5784" gradientUnits="userSpaceOnUse" x2="-3052.8" gradientTransform="matrix(.53530 -.35078 .35078 .53530 3718.1 2029.7)" y1="-5784" x1="-3069.9">
      <stop id="stop52" style="stop-color:#692010" offset="0"/>
      <stop id="stop54" style="stop-color:#7d210e" offset="1"/>
    </linearGradient>
    <linearGradient id="linearGradient68" y2="-891.49" gradientUnits="userSpaceOnUse" x2="-953.59" gradientTransform="matrix(.63661 -.065984 .085568 .63456 726.78 518.96)" y1="-891.49" x1="-1016.9">
      <stop id="stop70" style="stop-color:#ff4f2b" offset="0"/>
      <stop id="stop72" style="stop-color:#ba2d0d" offset="1"/>
    </linearGradient>
    <linearGradient id="linearGradient86" y2="875.75" gradientUnits="userSpaceOnUse" x2="796.81" gradientTransform="matrix(.63558 .07488 -.05504 .63795 -413.85 -601.73)" y1="875.75" x1="727.18">
      <stop id="stop88" style="stop-color:#e34627" offset="0"/>
      <stop id="stop90" style="stop-color:#a1230a" offset="1"/>
    </linearGradient>
    <linearGradient id="linearGradient108" y2="-3330.1" gradientUnits="userSpaceOnUse" x2="-2353.9" gradientTransform="matrix(.60070 -.22086 .23488 .59552 2238.3 1462.7)" y1="-3330.1" x1="-2420">
      <stop id="stop110" style="stop-color:#e34627" offset="0"/>
      <stop id="stop112" style="stop-color:#a1230a" offset="1"/>
    </linearGradient>
  </defs>
  <g id="g10" transform="matrix(1.25 0 0 -1.25 0 32.042)">
    <g id="g12">
      <path id="path14" style="fill-rule:evenodd;fill:#ff5833" d="m7.488 20.896-2.176 0.031h-1.023l-0.066 0.031 1.218 0.418-0.129-0.062c1.282 0.382 2.114 0.605 2.497 0.671 0.918 0.254 1.48 0.403 1.695 0.446 3.094-0.02 6.016-0.051 8.769-0.094l3.903-0.031h1.711l25.488-0.196-0.031-0.093-1.727-0.992 1.629 1.054c-2.023-1.004-3.125-1.558-3.293-1.664-0.172 0.024-2.785 0.067-7.84 0.129-0.152 0.02-0.269 0.031-0.351 0.031-4.867 0.11-8.184 0.141-9.953 0.098l-20.321 0.223z" inkscape:connector-curvature="0"/>
      <path id="path16" style="fill-rule:evenodd;fill:#ffa185" d="m23.887 22.306h-1.711l-3.903 0.031c-2.753 0.043-5.675 0.074-8.769 0.094-0.215-0.043-0.777-0.192-1.695-0.446-0.383-0.066-1.215-0.289-2.497-0.671l0.129 0.062 3.84 1.184 14.606-0.254zm22.097-2.274 0.063 0.129-38.621 0.703c-0.024 0.02 0 0.032 0.062 0.032l20.321-0.223c1.769 0.043 5.086 0.012 9.953-0.098 0.082 0 0.199-0.011 0.351-0.031 5.055-0.062 7.668-0.105 7.84-0.129 0.168 0.11 1.27 0.66 3.293 1.664l-1.629-1.054-1.633-0.993z" inkscape:connector-curvature="0"/>
      <g id="g18">
        <g id="g20">
          <g id="g26">
            <path id="path34" style="fill-rule:evenodd;fill:url(#linearGradient28)" d="m49.344 22.017 1.183-1.121 0.77-3.008-7.039-5.793-0.098 3.555 1.824 4.382 1.633 0.993 1.727 0.992z" inkscape:connector-curvature="0"/>
          </g>
        </g>
      </g>
      <path id="path36" style="fill-rule:evenodd;fill:#ff6342" d="m0.32 12.927h-0.191v-0.063l-0.031-0.031-0.036 0.192-0.031 2.656c0.086 0.363 0.184 0.605 0.289 0.734h0.032v-0.031l-0.032-1.024c-0.062-0.789-0.054-1.527 0.032-2.207l-0.032-0.226zm4.992 8 2.176-0.031c-0.062 0-0.086-0.012-0.062-0.032-1.43 0.02-2.231-0.031-2.403-0.16-0.128 0-0.246-0.054-0.351-0.16-0.512-0.215-1.195-0.789-2.047-1.726-0.535-0.387-1.313-1.016-2.336-1.891 0.043 0.066 0.086 0.117 0.125 0.16l0.098 0.129c0.449 0.555 0.875 0.992 1.281 1.312-0.043 0.02-0.031 0.032 0.031 0.032l0.129 0.16 0.16 0.129c0 0.019 0.008 0.043 0.032 0.062 0.105 0.192 0.191 0.309 0.253 0.352l1.344 1.281-1.246-1.281c0.063 0.043 0.129 0.074 0.192 0.097 0.746 0.747 1.226 1.161 1.441 1.247 0.105 0.043 0.246 0.086 0.414 0.128 0.023 0.067 0.109 0.098 0.258 0.098 0.086 0.043 0.254 0.074 0.511 0.094zm40.672-0.895-1.824-4.382-15.168 0.253-5.344 0.223c10.348-0.019 16.598-0.031 18.75-0.031 0.493-0.02 0.758-0.031 0.801-0.031 0.344 0 0.703 0.3 1.09 0.894l1.758 3.203-0.063-0.129zm-44.32-3.519 4.481-0.098-5.25-0.031c0.195 0.062 0.449 0.105 0.769 0.129z" inkscape:connector-curvature="0"/>
      <path id="path38" style="fill-rule:evenodd;fill:#401008" d="m51.328 17.728-1.984-1.758-5.055-4.258-0.031 0.383 7.039 5.793h0.031v-0.16z" inkscape:connector-curvature="0"/>
      <g id="g40">
        <g id="g42">
          <g id="g48">
            <path id="path56" style="fill-rule:evenodd;fill:url(#linearGradient50)" d="m51.359 17.696v-0.031l-2.015-1.695 1.984 1.758v0.16l0.031-0.192zm-6.625-17.664-0.125 3.68-0.097-0.961c-0.02-0.086-0.043-0.191-0.063-0.32l-0.226 8.609-0.032 0.449 0.098 0.063 7.102 5.887c0-0.364 0.011-0.723 0.035-1.086l0.191-9.887-6.883-6.434z" inkscape:connector-curvature="0"/>
          </g>
        </g>
      </g>
      <g id="g58">
        <g id="g60">
          <g id="g66">
            <path id="path74" style="fill-rule:evenodd;fill:url(#linearGradient68)" d="m0.895 16.384 5.25 0.031-4.481 0.098-1.664 0.062v0.032l0.098 0.097 0.511 0.641-0.195-0.258c-0.039-0.043-0.082-0.094-0.125-0.16 1.023 0.875 1.801 1.504 2.336 1.891 0.852 0.937 1.535 1.511 2.047 1.726 0.105 0.106 0.223 0.16 0.351 0.16 0.172 0.129 0.973 0.18 2.403 0.16l38.621-0.703-1.758-3.203c-0.387-0.598-0.746-0.894-1.09-0.894-0.043 0-0.308 0.011-0.801 0.031-2.152 0-8.402 0.012-18.75 0.031l5.344-0.223-28.64 0.481v0.031l0.543-0.031z" inkscape:connector-curvature="0"/>
          </g>
        </g>
      </g>
      <g id="g76">
        <g id="g78">
          <g id="g84">
            <path id="path92" style="fill-rule:evenodd;fill:url(#linearGradient86)" d="m1.633 12.864-1.313 0.063 0.032 0.226c-0.086 0.68-0.094 1.418-0.032 2.207l0.032 1.024 28.64-0.481 15.168-0.253 0.098-3.555 0.031-0.383-0.066-0.031-0.063 0.191v0.031l-42.527 0.961z" inkscape:connector-curvature="0"/>
          </g>
        </g>
      </g>
      <path id="path94" style="fill-rule:evenodd;fill:#5f190b" d="m5.406 12.513-3.519 0.129-0.16 0.062-1.598 0.192 1.504-0.032 42.527-0.961v-0.031l-0.222-0.129c-0.215 0-1.071-0.011-2.563-0.031l-17.437 0.32v-0.031l-18.532 0.512z" inkscape:connector-curvature="0"/>
      <path id="path96" style="fill-rule:evenodd;fill:#c24127" d="m44.223 11.04 0.226-8.609c-0.148-0.66-0.461-1.203-0.929-1.629-0.469-0.281-1.012-0.43-1.633-0.449-0.403 0-4.321 0.062-11.742 0.191 3.218 0.043 5.429 0.086 6.625 0.129 3.089-0.086 5.054 0.043 5.886 0.383 0.086 0.062 0.192 0.14 0.321 0.222 0.234 0.258 0.554 0.665 0.961 1.219 0.234 0.641 0.339 2.399 0.32 5.278l-0.067 3.617 0.032-0.352z" inkscape:connector-curvature="0"/>
      <g id="g98">
        <g id="g100">
          <g id="g106">
            <path id="path114" style="fill-rule:evenodd;fill:url(#linearGradient108)" d="m30.145 0.544c-6.422 0.129-15.747 0.309-27.969 0.543-0.426 0.023-0.77 0.055-1.024 0.098-0.191 0.062-0.332 0.129-0.418 0.191l-0.031 0.031-0.129 0.067c-0.082 0.062-0.148 0.136-0.191 0.222l-0.192 10.274v0.351c0 0.039-0.011 0.075-0.031 0.094l1.473-0.031h0.129c0.043-0.043 0.148-0.063 0.316-0.063 0-0.043 0.067-0.078 0.195-0.097h0.192c0.148-0.02 0.32-0.02 0.512 0l1.664 0.031c2.984-0.086 8.211-0.234 15.679-0.445l5.055-0.067c7.809-0.148 13.121-0.254 15.937-0.32 1.516 0.023 2.336 0.023 2.465 0l0.254 0.16-20.093 0.418v0.031l17.437-0.32c1.492 0.02 2.348 0.031 2.563 0.031l0.222 0.129 0.063-0.191-0.032-0.192 0.032-0.449-0.032 0.352 0.067-3.617c0.019-2.879-0.086-4.637-0.32-5.278-0.407-0.554-0.727-0.961-0.961-1.219-0.129-0.082-0.235-0.16-0.321-0.222-0.832-0.34-2.797-0.469-5.886-0.383-1.196-0.043-3.407-0.086-6.625-0.129zm-28.258 12.098-1.375 0.093h-0.321l-0.031 0.032c-0.043 0.023-0.062 0.043-0.062 0.066l0.031 0.031v0.063h0.191l1.313-0.063-1.504 0.032 1.598-0.192 0.16-0.062z" inkscape:connector-curvature="0"/>
          </g>
        </g>
      </g>
      <path id="path116" style="fill-rule:evenodd;fill:#a63c28" d="m51.359 17.696 0.067-0.191-0.035-0.066-7.102-5.887-0.098-0.063 0.032 0.192 0.066 0.031 5.055 4.258 2.015 1.695v0.031z" inkscape:connector-curvature="0"/>
      <path id="path118" style="fill-rule:evenodd;fill:#eb683f" d="m4.641 12.255c-0.661 0.023-1.196 0.031-1.602 0.031-0.062 0.129-0.277 0.196-0.641 0.196l-0.16-0.129-0.16-0.032c-0.168 0-0.273 0.02-0.316 0.063h-0.129l-0.129 0.191 3.902-0.062 18.532-0.512 20.093-0.418-0.254-0.16c-0.129 0.023-0.949 0.023-2.465 0-2.816 0.066-8.128 0.172-15.937 0.32l-5.055 0.067c-7.468 0.211-12.695 0.359-15.679 0.445z" inkscape:connector-curvature="0"/>
      <path id="path120" style="fill-rule:evenodd;fill:#6c2010" d="m0.383 1.696c0.043-0.086 0.109-0.16 0.191-0.222l0.129-0.067 0.031-0.031c0.086-0.062 0.227-0.129 0.418-0.191 0.254-0.043 0.598-0.075 1.024-0.098 12.222-0.234 21.547-0.414 27.969-0.543 7.421-0.129 11.339-0.191 11.742-0.191 0.621 0.019 1.164 0.172 1.633 0.449 0.468 0.426 0.781 0.969 0.929 1.629 0.02 0.129 0.043 0.234 0.063 0.32l0.097 0.961 0.125-3.68c-0.062 0.02-0.136 0.032-0.222 0.032-0.34 0-0.918-0.02-1.727-0.063h-5.312l-36.481 0.734c-0.406 0.086-0.609 0.278-0.609 0.579v0.382z" inkscape:connector-curvature="0"/>
      <path id="path122" style="fill-rule:evenodd;fill:#ffaf9e" d="m1.633 12.384-1.473 0.031c-0.019 0.024-0.043 0.031-0.062 0.031-0.024 0.043-0.024 0.079 0 0.098v0.031c0 0.043 0.019 0.086 0.062 0.129h0.063l0.035 0.031h0.254l0.992-0.16 0.129-0.191zm-1.633 4.191 1.664-0.062c-0.32-0.024-0.574-0.067-0.769-0.129l-0.543 0.031h-0.032c-0.105-0.129-0.203-0.371-0.289-0.734l-0.031 0.894zm4.289 4.352h1.023c-0.257-0.02-0.425-0.051-0.511-0.094-0.149 0-0.235-0.031-0.258-0.098-0.168-0.042-0.309-0.085-0.414-0.128-0.215-0.082-0.695-0.5-1.441-1.247-0.063-0.023-0.129-0.054-0.192-0.097l1.246 1.281 0.387 0.414 0.16-0.031zm-1.25-8.641v-0.031c-0.062 0.023-0.086 0.012-0.062-0.031-0.192-0.02-0.364-0.02-0.512 0h-0.192c-0.128 0.023-0.195 0.054-0.195 0.097l0.16 0.032 0.16 0.129c0.364 0 0.579-0.067 0.641-0.196z" inkscape:connector-curvature="0"/>
      <path id="path124" style="fill-rule:evenodd;fill:#f05532" d="m0.258 12.735-0.035-0.031h-0.063v0.063l0.031-0.032h0.067zm1.246-0.16-0.992 0.16 1.375-0.093 3.519-0.129-3.902 0.062zm3.137-0.32-1.664-0.031c-0.024 0.043 0 0.054 0.062 0.031v0.031c0.406 0 0.941-0.008 1.602-0.031z" inkscape:connector-curvature="0"/>
      <path id="path126" style="fill-rule:evenodd;fill:#b39e9a" d="m18.754 12.607c-0.215 0-0.344 0.023-0.387 0.066-0.062 0-0.148 0.129-0.254 0.383l-0.035-0.129c0 0.129 0.098 0.363 0.289 0.707 0.172 0.359 0.321 0.594 0.449 0.703 0.407 0.211 0.926 0.34 1.567 0.383 0.109 0.019 0.226 0.031 0.351 0.031l-0.254-0.062v-0.098c-0.363-0.063-0.628-0.148-0.8-0.254 1.453 0.129 2.316-0.066 2.593-0.578 0.043-0.106 0.063-0.266 0.063-0.481-0.02-0.296-0.086-0.476-0.191-0.543-0.106-0.105-0.266-0.128-0.481-0.062v0.094c-0.019 0.148-0.098 0.277-0.223 0.386 0 0.125-0.035 0.204-0.097 0.223l-0.192 0.098c0-0.043 0.012-0.098 0.032-0.16-0.02 0.019-0.043 0.031-0.063 0.031-0.32 0.129-0.672 0.16-1.059 0.094h0.067c0.043-0.02 0.105-0.082 0.191-0.192l0.032-0.031c0.062-0.106 0.105-0.223 0.128-0.352 0.02-0.086 0.032-0.16 0.032-0.222 0-0.086 0.031-0.172 0.097-0.258v-0.063c0.02-0.066 0.039-0.14 0.063-0.226-0.02-0.02-0.02-0.043 0-0.063 0.023-0.043 0.043-0.086 0.062-0.129 0.024-0.019 0.043-0.062 0.067-0.128v-0.063c0.019-0.043 0.031-0.086 0.031-0.129 0.043-0.148 0.074-0.277 0.098-0.383l0.125-3.136c0-0.297 0.043-0.727 0.129-1.282-0.383-0.125-0.618-0.039-0.704 0.258v0.832c0 0.086 0.012 0.172 0.032 0.254-0.02 0.172-0.012 0.344 0.031 0.516-0.02 0-0.02 0.019 0 0.062-0.02 0.129-0.051 0.246-0.094 0.352v0.031c-0.023 0.512-0.183 0.77-0.48 0.77h-0.227c-0.297-0.024-0.488-0.11-0.574-0.258-0.043-0.063-0.055-0.211-0.031-0.446v-0.128c-0.086-0.067-0.141-0.118-0.16-0.161-0.024-0.043-0.024-0.086 0-0.129v-0.031c-0.067-0.129-0.086-0.308-0.067-0.543l0.035-0.191 0.063 0.062c0.019 0.235 0.054 0.407 0.097 0.512 0.02 0.063 0.063 0.117 0.125 0.16 0.043 0.129 0.122 0.235 0.227 0.321 0.148 0.128 0.254 0.179 0.32 0.16l0.125 0.129h-0.125c0.082 0.019 0.161 0.031 0.223 0.031 0.062-0.043 0.117-0.086 0.16-0.129 0.063-0.106 0.117-0.234 0.16-0.383-0.043 0.125-0.097 0.235-0.16 0.32l-0.062 0.063c-0.043 0-0.078-0.012-0.098-0.031-0.086-0.043-0.16-0.098-0.223-0.16-0.109-0.086-0.172-0.204-0.191-0.352-0.086-0.066-0.129-0.172-0.129-0.32l0.031-0.032c-0.023 0-0.031-0.011-0.031-0.035-0.023-0.148-0.055-0.254-0.098-0.316-0.043-0.043-0.136-0.098-0.289-0.16l-0.093 0.062 0.16-0.258c0.043-0.082 0.093-0.136 0.16-0.16v-0.094c0.019-0.234 0.012-0.417-0.031-0.542-0.11-0.215-0.332-0.258-0.672-0.129-0.043 0.105-0.086 0.265-0.129 0.48-0.086 0.402-0.16 0.969-0.227 1.695-0.043 0.493-0.062 0.852-0.062 1.086v0.321c0.043-0.02 0.074-0.043 0.097-0.063 0.106-0.086 0.211-0.117 0.321-0.098 0.043 0.043 0.082 0.079 0.125 0.098 0.066 0.086 0.086 0.277 0.066 0.574v0.129c0.106 0.149 0.106 0.227 0 0.227v0.222c0 0.02 0.008 0.051 0.031 0.094 0 0.086 0.012 0.16 0.032 0.227v0.129c0.019 0.105 0.031 0.203 0.031 0.285v0.031c0.043 0.109 0.074 0.184 0.098 0.227 0 0.019-0.012 0.043-0.032 0.062l0.063-0.031c0 0.086 0.019 0.148 0.062 0.191 0.172 0.258 0.438 0.45 0.801 0.578 0.024 0.082-0.051 0.149-0.223 0.192l-0.257-0.16-0.321-0.129c-0.125-0.106-0.234-0.254-0.316-0.449zm0.094 0.961c0.129 0.148 0.257 0.257 0.382 0.32 0.153 0.105 0.418 0.172 0.801 0.191 0 0.067-0.043 0.117-0.129 0.16l-0.222 0.067c-0.407-0.043-0.684-0.141-0.832-0.289-0.149-0.192-0.266-0.469-0.352-0.832 0.086 0.043 0.203 0.172 0.352 0.383zm-0.45-2.016c-0.043-0.172-0.093-0.332-0.16-0.481-0.082-0.234-0.117-0.492-0.093-0.765-0.043 0.211-0.067 0.469-0.067 0.765l0.067 0.77h0.031c-0.063-0.109 0-0.203 0.191-0.289h0.031zm0.45-1.535c-0.129-0.192-0.192-0.461-0.192-0.801v-0.191l0.032-0.067c0-0.234 0.031-0.383 0.097-0.445 0.02 0.086 0.043 0.172 0.063 0.254 0 0.066 0.011 0.117 0.031 0.16 0 0.129 0.012 0.246 0.031 0.351v0.45c-0.019 0.191 0.258 0.308 0.832 0.351 0.067 0 0.153 0.012 0.258 0.031l0.031 0.036h0.227c0 0.105-0.078 0.168-0.227 0.191-0.062 0.02-0.136 0.02-0.222 0-0.11 0.02-0.215 0.02-0.321 0-0.234-0.023-0.418-0.098-0.543-0.227-0.043-0.019-0.078-0.05-0.097-0.093zm-0.254-3.328c0.019-0.043 0.062-0.086 0.125-0.129-0.043 0.019-0.074 0.043-0.094 0.062-0.023 0-0.031 0.024-0.031 0.067zm1.664 1.535v-0.063c-0.086-0.343-0.246-0.566-0.481-0.672 0.192 0.106 0.34 0.329 0.446 0.672 0.023 0.02 0.031 0.039 0.035 0.063zm1.469 3.07c0.195-0.277 0.277-0.562 0.257-0.863 0-0.125-0.011-0.254-0.031-0.383-0.043-0.148-0.109-0.277-0.191-0.383-0.043-0.109-0.086-0.191-0.129-0.258 0.043 0.235 0.062 0.45 0.062 0.641-0.019 0.449-0.011 0.863 0.032 1.246zm-1.153-3.902c-0.125-0.172-0.074-0.266 0.16-0.289l-0.031 0.289h-0.129zm-1.82-0.321c0.105-0.086 0.156 0.098 0.156 0.543l-0.222-0.125c0.023-0.257 0.042-0.394 0.066-0.418z" inkscape:connector-curvature="0"/>
      <path id="path128" style="fill-rule:evenodd;fill:#faddd8" d="m18.398 11.552c0.024 0.086 0.055 0.172 0.098 0.258 0.02 0.082 0.031 0.179 0.031 0.285 0 0.023 0.012 0.031 0.032 0.031 0.043 0.086 0.078 0.16 0.097 0.227 0.02 0.019 0.02 0.043 0 0.062 0.02 0.067 0.055 0.129 0.098 0.192 0.082 0.195 0.191 0.343 0.316 0.449l0.321 0.129 0.257 0.16c0.172-0.043 0.247-0.11 0.223-0.192-0.363-0.128-0.629-0.32-0.801-0.578-0.039-0.043-0.062-0.105-0.062-0.191l-0.063 0.031c0.02-0.019 0.032-0.043 0.032-0.062-0.024-0.043-0.055-0.118-0.098-0.227v-0.031c0-0.082-0.012-0.18-0.031-0.285v-0.129c-0.02-0.067-0.032-0.141-0.032-0.227-0.023-0.043-0.031-0.074-0.031-0.094v-0.222c0.106 0 0.106-0.078 0-0.227v-0.129c0.02-0.297 0-0.488-0.066-0.574-0.043-0.019-0.082-0.055-0.125-0.098-0.11-0.019-0.215 0.012-0.321 0.098-0.023 0.02-0.054 0.043-0.097 0.063h-0.031v0.035c-0.024 0.277 0.011 0.531 0.093 0.765 0.067 0.149 0.117 0.309 0.16 0.481zm0.45 2.016c-0.149-0.211-0.266-0.34-0.352-0.383 0.086 0.363 0.203 0.64 0.352 0.832 0.148 0.148 0.425 0.246 0.832 0.289l0.222-0.067c0.086-0.043 0.129-0.093 0.129-0.16-0.383-0.019-0.648-0.086-0.801-0.191-0.125-0.063-0.253-0.172-0.382-0.32zm0.289-4.543c0.043 0.043 0.086 0.074 0.129 0.093 0.062 0.043 0.117 0.086 0.16 0.129l0.031 0.067h0.031c0.02 0.043 0.043 0.082 0.063 0.125h0.035l0.156-0.125h0.16l-0.125-0.129c-0.066 0.019-0.172-0.032-0.32-0.16-0.109-0.086-0.184-0.192-0.227-0.321-0.062-0.043-0.105-0.097-0.125-0.16-0.043-0.105-0.078-0.277-0.097-0.512l-0.063-0.062-0.035 0.191c-0.019 0.235 0 0.414 0.067 0.543v0.031c-0.024 0.043-0.024 0.086 0 0.129 0.019 0.043 0.074 0.094 0.16 0.161zm2.304 4.128c-0.066 0.063-0.152 0.118-0.257 0.161-0.02 0.062-0.032 0.117-0.032 0.16l0.192-0.098c0.062-0.019 0.097-0.098 0.097-0.223zm-2.593-3.136c0.019 0.043 0.054 0.074 0.097 0.093 0.125 0.129 0.309 0.204 0.543 0.227 0.106 0.02 0.211 0.02 0.321 0 0.086 0.02 0.16 0.02 0.222 0 0.149-0.023 0.227-0.086 0.227-0.191h-0.227l-0.031-0.036c-0.105-0.019-0.191-0.031-0.258-0.031-0.574-0.043-0.851-0.16-0.832-0.351v-0.45c-0.019-0.105-0.031-0.222-0.031-0.351-0.02-0.043-0.031-0.094-0.031-0.16-0.02-0.082-0.043-0.168-0.063-0.254-0.066 0.062-0.097 0.211-0.097 0.445l-0.032 0.067v0.191c0 0.34 0.063 0.609 0.192 0.801zm1.726-2.625h0.129l0.031-0.289c-0.234 0.023-0.285 0.117-0.16 0.289zm-1.82-0.321c-0.024 0.024-0.043 0.161-0.066 0.418l0.222 0.125c0-0.445-0.051-0.629-0.156-0.543z" inkscape:connector-curvature="0"/>
      <path id="path130" style="fill-rule:evenodd;fill:#706361" d="m18.719 6.56c-0.063 0.043-0.106 0.086-0.125 0.129 0.34-0.129 0.562-0.086 0.672 0.129 0.039 0.125 0.05 0.308 0.031 0.542v0.094h0.031c0.02-0.019 0.055-0.031 0.098-0.031 0.062-0.02 0.136-0.012 0.222 0.031 0.063-0.277 0.086-0.457 0.063-0.543-0.063-0.211-0.18-0.363-0.352-0.445-0.062-0.023-0.129-0.043-0.191-0.066h-0.063c-0.109 0.023-0.183 0.054-0.226 0.097-0.043 0-0.094 0.02-0.16 0.063zm1.441 2.593c-0.043-0.066-0.074-0.128-0.098-0.195-0.019-0.105-0.05-0.234-0.093-0.383-0.024-0.043-0.031-0.086-0.031-0.129v-0.285c-0.043-0.215-0.098-0.343-0.161-0.386-0.109-0.106-0.246-0.168-0.418-0.192-0.062 0-0.136 0.012-0.222 0.031l-0.16 0.258 0.093-0.062c0.153 0.062 0.246 0.117 0.289 0.16 0.043 0.062 0.075 0.168 0.098 0.316 0 0.024 0.012 0.035 0.031 0.035l-0.031 0.032c0 0.148 0.043 0.254 0.129 0.32 0.019 0.148 0.082 0.266 0.191 0.352 0.063 0.062 0.137 0.117 0.223 0.16 0.02 0.019 0.055 0.031 0.098 0.031l0.062-0.063zm0.16-0.32c-0.043 0.149-0.097 0.277-0.16 0.383-0.043 0.105-0.105 0.172-0.191 0.191-0.067 0.043-0.129 0.055-0.192 0.032h-0.226c-0.063-0.02-0.106-0.051-0.125-0.094v-0.098c-0.043-0.043-0.098-0.086-0.16-0.129-0.043-0.019-0.086-0.05-0.129-0.093v0.128c-0.024 0.235-0.012 0.383 0.031 0.446 0.086 0.148 0.277 0.234 0.574 0.258h0.227c0.297 0 0.457-0.258 0.48-0.77v-0.031c0.043-0.106 0.074-0.223 0.094-0.352-0.02-0.043-0.02-0.062 0-0.062-0.043-0.172-0.051-0.344-0.031-0.516-0.02-0.082-0.032-0.168-0.032-0.254v-0.832c0.086-0.301 0.321-0.383 0.704-0.258-0.086 0.555-0.129 0.985-0.129 1.282l-0.125 3.136c-0.024 0.106-0.055 0.235-0.098 0.383 0 0.043-0.012 0.086-0.031 0.129v0.063c-0.024 0.066-0.043 0.109-0.067 0.128-0.019 0.043-0.039 0.086-0.062 0.129-0.02 0.02-0.02 0.043 0 0.063-0.02 0.086-0.043 0.16-0.063 0.226v0.063c-0.066 0.086-0.097 0.172-0.097 0.258 0 0.062-0.012 0.136-0.032 0.222-0.023 0.129-0.066 0.246-0.128 0.352l-0.032 0.031c-0.086 0.11-0.148 0.172-0.191 0.192 0.148-0.02 0.297-0.082 0.445-0.192 0.067-0.043 0.141-0.105 0.227-0.191 0.062-0.063 0.117-0.149 0.16-0.254 0.043 0 0.074-0.035 0.094-0.098 0.043-0.105 0.086-0.222 0.129-0.351h0.031v-0.289c0.023-0.106 0.031-0.204 0.031-0.289v-0.223c0.043-0.531 0.078-1.024 0.098-1.473v-0.094c-0.043-0.257-0.063-0.589-0.063-0.992 0.02-0.023 0.031-0.043 0.031-0.066 0-0.192-0.011-0.395-0.031-0.606v-0.578c0-0.086 0.008-0.246 0.031-0.48 0.02-0.278 0.02-0.457 0-0.543-0.085-0.086-0.246-0.129-0.48-0.129-0.234 0.043-0.406 0.066-0.512 0.066l-0.062 1.504v0.16c0.019 0.082 0.031 0.168 0.031 0.254v0.032c0.02 0.043 0.031 0.078 0.031 0.097v0.129zm1.407 2.461c-0.02 0.152-0.02 0.289 0 0.418h0.035c0.277 0 0.457-0.031 0.543-0.098l-0.258-0.093c0.023-0.11 0.074-0.278 0.16-0.512 0.086-0.258 0.117-0.461 0.098-0.609 0-0.129-0.012-0.247-0.032-0.352-0.128-0.258-0.32-0.523-0.578-0.801-0.019-0.019-0.05-0.043-0.093-0.062 0 0.062 0.007 0.136 0.031 0.222 0.043 0.067 0.086 0.149 0.129 0.258 0.082 0.106 0.148 0.235 0.191 0.383 0.02 0.129 0.031 0.258 0.031 0.383 0.02 0.301-0.062 0.59-0.257 0.863zm0 1.09c-0.043 0.086-0.063 0.184-0.063 0.289 0.215-0.066 0.375-0.043 0.481 0.062 0.105 0.067 0.171 0.247 0.191 0.543 0 0.215-0.02 0.375-0.063 0.481-0.277 0.512-1.14 0.707-2.593 0.578 0.172 0.106 0.437 0.191 0.8 0.254v0.098l0.254 0.062c0.172 0 0.332-0.019 0.481-0.062 0.086-0.11 0.277-0.223 0.578-0.352 0.297-0.109 0.512-0.215 0.641-0.32 0.191-0.235 0.222-0.746 0.093-1.535-0.129-0.067-0.339-0.11-0.64-0.129l-0.16 0.031zm-2.973 0.223c-0.043-0.063-0.078-0.125-0.098-0.192l-0.578 0.067c-0.019 0.125-0.019 0.277 0 0.445l0.035 0.129c0.106-0.254 0.192-0.383 0.254-0.383 0.043-0.043 0.172-0.066 0.387-0.066zm-0.258-0.797c-0.043-0.086-0.074-0.172-0.098-0.258h-0.031c-0.191 0.086-0.254 0.18-0.191 0.289l0.32-0.031z" inkscape:connector-curvature="0"/>
      <path id="path132" style="fill-rule:evenodd;fill:#601a0b" d="m21.215 14.689c-0.149 0.043-0.309 0.062-0.481 0.062-0.125 0-0.242-0.012-0.351-0.031 0.172 0.062 0.375 0.137 0.609 0.223 0.254 0.023 0.574 0 0.961-0.063 0.086-0.023 0.402-0.129 0.957-0.32 0.301-0.149 0.461-0.246 0.481-0.289 0.129-0.149 0.214-0.34 0.257-0.575 0-0.128 0.012-0.351 0.032-0.671 0-0.278-0.043-0.469-0.129-0.579-0.02-0.062-0.063-0.105-0.125-0.125-0.086-0.043-0.196-0.054-0.321-0.035-0.152-0.019-0.332-0.019-0.546 0l0.32 0.035h0.32c-0.043 0.747-0.129 1.278-0.254 1.598-0.109 0.277-0.461 0.481-1.058 0.609-0.192 0.086-0.414 0.137-0.672 0.161zm-1.918-8.352c0.641-0.086 1.183-0.098 1.633-0.031l0.511 0.062c0.106 0.106 0.161 0.364 0.161 0.77-0.024 0.488-0.036 0.797-0.036 0.926 0.024 0.105 0.024 0.222 0 0.351 0.11 0.043 0.227 0.086 0.356 0.129 0.512 0.277 0.808 0.641 0.894 1.09 0.063 0.082 0.106 0.191 0.129 0.316 0.063 0.321 0.117 0.684 0.16 1.09l0.032 0.129c0 0.149 0.011 0.297 0.031 0.445 0.043-0.211 0.055-0.5 0.031-0.863 0.043-0.148 0.074-0.469 0.098-0.961 0-0.062-0.012-0.148-0.031-0.254 0.039-0.406 0.062-0.621 0.062-0.64-0.043-0.235-0.191-0.414-0.449-0.543-0.254-0.149-0.586-0.301-0.992-0.45l0.035-1.824c-0.024-0.129-0.086-0.211-0.195-0.254-0.02 0-0.149-0.023-0.383-0.066-0.512-0.086-1.121-0.074-1.824 0.031-0.129 0.043-0.204 0.086-0.223 0.129v0.418z" inkscape:connector-curvature="0"/>
      <path id="path134" style="fill-rule:evenodd;fill:#4a4140" d="m21.727 11.294c-0.043-0.383-0.051-0.797-0.032-1.246 0-0.191-0.019-0.406-0.062-0.641-0.024-0.086-0.031-0.16-0.031-0.222 0.043 0.019 0.074 0.043 0.093 0.062 0.258 0.278 0.45 0.543 0.578 0.801 0.02 0.105 0.032 0.223 0.032 0.352 0.019 0.148-0.012 0.351-0.098 0.609-0.086 0.234-0.137 0.402-0.16 0.512l0.258 0.093c-0.086 0.067-0.266 0.098-0.543 0.098h-0.035c-0.02-0.129-0.02-0.266 0-0.418zm-1.407-2.461v-0.129c0-0.019-0.011-0.054-0.031-0.097v-0.032c0-0.086-0.012-0.172-0.031-0.254v-0.097c-0.004-0.024-0.012-0.043-0.035-0.063-0.106-0.343-0.254-0.566-0.446-0.672 0.235 0.106 0.395 0.329 0.481 0.672l0.062-1.504c0.106 0 0.278-0.023 0.512-0.066 0.234 0 0.395 0.043 0.48 0.129 0.02 0.086 0.02 0.265 0 0.543-0.023 0.234-0.031 0.394-0.031 0.48v0.578c0.02 0.211 0.031 0.414 0.031 0.606 0 0.023-0.011 0.043-0.031 0.066 0 0.403 0.02 0.735 0.063 0.992v0.094c-0.02 0.449-0.055 0.938-0.098 1.473v0.223c0 0.085-0.008 0.183-0.031 0.289v0.289h-0.031c-0.043 0.129-0.086 0.246-0.129 0.351-0.02 0.063-0.051 0.098-0.094 0.098-0.043 0.105-0.098 0.191-0.16 0.254-0.086 0.086-0.16 0.148-0.227 0.191-0.148 0.11-0.297 0.172-0.445 0.192h-0.067c0.387 0.066 0.739 0.035 1.059-0.094 0.02 0 0.043-0.012 0.063-0.031 0.105-0.043 0.191-0.098 0.257-0.161 0.125-0.109 0.204-0.238 0.223-0.386v-0.094c0-0.109 0.02-0.203 0.063-0.289v-0.574l0.097-0.067c0.106 0 0.235 0.012 0.383 0.032 0.109 0 0.215-0.008 0.32-0.032h0.543c0.024 0.024 0.043 0.032 0.067 0.032l0.031-0.161c-0.023-0.148-0.031-0.296-0.031-0.445l-0.032-0.129c-0.043-0.406-0.097-0.769-0.16-1.09-0.023-0.125-0.066-0.234-0.129-0.316-0.086-0.449-0.382-0.813-0.894-1.09-0.129-0.043-0.246-0.086-0.356-0.129 0.024-0.129 0.024-0.246 0-0.351 0-0.129 0.012-0.438 0.036-0.926 0-0.406-0.055-0.664-0.161-0.77l-0.511-0.062c-0.45-0.067-0.992-0.055-1.633 0.031 0 0.02-0.024 0.043-0.067 0.063h-0.062c0.062 0.023 0.129 0.043 0.191 0.066 0.172 0.082 0.289 0.234 0.352 0.445 0.023 0.086 0 0.27-0.063 0.543-0.086-0.043-0.16-0.051-0.222-0.031-0.043 0-0.078 0.012-0.098 0.031h-0.031c-0.067 0.024-0.117 0.078-0.16 0.16 0.086-0.019 0.16-0.031 0.222-0.031 0.172 0.024 0.309 0.086 0.418 0.192 0.063 0.043 0.118 0.171 0.161 0.386v0.285c0 0.043 0.007 0.086 0.031 0.129 0.043 0.149 0.074 0.278 0.093 0.383 0.024 0.067 0.055 0.129 0.098 0.195 0.063-0.085 0.117-0.195 0.16-0.32zm-0.543 0.481h-0.035l-0.156 0.125h0.191c0.063 0.023 0.125 0.011 0.192-0.032 0.086-0.019 0.148-0.086 0.191-0.191-0.043 0.043-0.098 0.086-0.16 0.129-0.062 0-0.141-0.012-0.223-0.031zm1.438 5.375c0.258-0.024 0.48-0.075 0.672-0.161 0.597-0.128 0.949-0.332 1.058-0.609 0.125-0.32 0.211-0.851 0.254-1.598h-0.32l-0.992 0.032c0.301 0.019 0.511 0.062 0.64 0.129 0.129 0.789 0.098 1.3-0.093 1.535-0.129 0.105-0.344 0.211-0.641 0.32-0.301 0.129-0.492 0.242-0.578 0.352zm-1.789-5.442v0.098c0.019 0.043 0.062 0.074 0.125 0.094-0.02-0.043-0.043-0.082-0.063-0.125h-0.031l-0.031-0.067z" inkscape:connector-curvature="0"/>
      <path id="path136" style="fill-rule:evenodd;fill:#883a2a" d="m30.977 20.513 0.062 0.062c0.258 0 0.481 0.11 0.672 0.321 0.172 0.214 0.258 0.468 0.258 0.769l-0.031 0.031-0.227 0.161 1.121-0.223-0.062-0.516c-0.043-0.062-0.098-0.117-0.161-0.16-0.468-0.273-1.015-0.426-1.632-0.445zm-12.993 0.574c0.02 0.023 0.055 0.031 0.094 0.031 0.344 0.196 0.524 0.418 0.547 0.672 0-0.148 0.051-0.148 0.16 0l0.863-0.351-1.664-0.352z" inkscape:connector-curvature="0"/>
      <path id="path138" style="fill-rule:evenodd;fill:#b39e9a" d="m30.176 21.536h0.097v-0.062l-0.097 0.062-0.16-0.031c0.043-0.043 0.129-0.086 0.257-0.129l0.895 0.16c0.02-0.019 0.043-0.031 0.062-0.031 0.024 0.02 0.055 0.043 0.098 0.063 0.063 0.023 0.129 0.042 0.192 0.066 0.171 0.148 0.128 0.234-0.129 0.254l-0.543 0.16 0.863-0.191 0.227-0.161c-0.387-0.3-0.801-0.523-1.25-0.671-0.661-0.11-1.215 0.105-1.665 0.64-0.363 0.426-0.777 0.832-1.246 1.215-0.468 0.449-0.949 0.875-1.441 1.281-0.148 0.125-0.297 0.223-0.449 0.285-0.875-0.019-1.715-0.019-2.528 0-0.851 0.024-1.707 0.024-2.558 0-0.856 0.067-1.442-0.265-1.762-0.992-0.129-0.254-0.266-0.5-0.414-0.734-0.129-0.277-0.301-0.5-0.512-0.672-0.918-0.727-1.972-0.949-3.168-0.672l0.512 0.383c0.383-0.383 0.875-0.457 1.473-0.223l0.125 0.129c0.343 0.363 0.308 0.5-0.094 0.414l0.031 0.067 0.449-0.067-0.035-0.129c0.621 1.071 1.399 2.02 2.336 2.852l6.692 0.031 0.796 0.254 0.739-0.641-0.77 0.161c0.043-0.168 0.129-0.329 0.258-0.481 0.445-0.574 0.957-1.086 1.535-1.535 0.086-0.063 0.16-0.137 0.223-0.223 0.148-0.191 0.234-0.418 0.258-0.672 0-0.023 0.019-0.031 0.062-0.031 0-0.023 0.012-0.023 0.031 0l0.321 0.16 0.418 0.223h0.222c-0.105-0.043-0.172-0.105-0.191-0.191 0 0.019 0.043 0.019 0.129 0l0.289 0.031 0.031-0.098c-0.258-0.125-0.461-0.199-0.609-0.222l0.031 0.066c-0.019 0.211-0.031 0.191-0.031-0.066v-0.032zm0.703-1.023 0.16 0.062-0.062-0.062h-0.098zm-0.606 0.961h0.254l-0.254-0.098v0.098zm-14.242 0.543c0.086-0.086 0.203-0.149 0.352-0.192l0.449 0.125 0.063 0.035-0.032-0.035-0.511-0.191-0.735 0.098 0.414 0.16zm0.16 0.062 0.801 0.067-0.289-0.196h-0.445c-0.043-0.043-0.067 0-0.067 0.129z" inkscape:connector-curvature="0"/>
      <path id="path140" style="fill-rule:evenodd;fill:#4a4140" d="m30.879 20.513c-0.598-0.067-1.152 0.019-1.664 0.254l-0.895 1.023c0.254-0.191 0.524-0.394 0.801-0.605 0.211-0.11 0.426-0.215 0.641-0.321 0.254-0.043 0.511-0.086 0.765-0.129 0.598 0.086 1.067 0.407 1.411 0.961l0.031-0.031c0-0.301-0.086-0.555-0.258-0.769-0.191-0.211-0.414-0.321-0.672-0.321l-0.16-0.062zm-2.016 2.847 0.961-1.214-0.258-0.481c-0.019-0.023-0.031-0.023-0.031 0-0.043 0-0.062 0.008-0.062 0.031-0.024 0.254-0.11 0.481-0.258 0.672-0.043 0.086-0.082 0.172-0.125 0.254-0.067 0.11-0.184 0.258-0.356 0.449-0.105 0.149-0.148 0.289-0.125 0.418 0.02 0.043 0.106 0 0.254-0.129zm-8.031 0.864c-0.215-0.063-0.449-0.211-0.703-0.449-0.492-0.469-0.875-1-1.152-1.598-0.086-0.172-0.149-0.301-0.192-0.387-0.109-0.148-0.16-0.148-0.16 0-0.023-0.254-0.203-0.476-0.547-0.672-0.039 0-0.074-0.008-0.094-0.031l-1.281-0.254-1.633 0.254c0.641 0.109 1.282 0.117 1.922 0.031 0.406 0.043 0.746 0.172 1.024 0.387l0.992 1.344c0.215 0.34 0.449 0.66 0.703 0.961 0.172 0.168 0.387 0.277 0.641 0.316 0.148 0.043 0.308 0.078 0.48 0.098zm0.063 0.031c0.75 0.129 1.515 0.172 2.304 0.129 0.703 0 1.442-0.012 2.207-0.031 0.473 0.062 0.77-0.086 0.899-0.45-0.789 0.321-1.653 0.438-2.594 0.352h-2.816z" inkscape:connector-curvature="0"/>
      <path id="path142" style="fill-rule:evenodd;fill:#faddd8" d="m17.441 22.079v0.031c0.512 0.833 1.086 1.657 1.727 2.465 0.34 0.45 0.777 0.746 1.312 0.899 1.536 0.191 3.071 0.211 4.61 0.062 0.765 0 1.48-0.148 2.14-0.449l-0.796-0.254-0.45 0.031 0.543 0.321c-0.234 0.129-0.703 0.179-1.406 0.16-0.707-0.024-1.687-0.012-2.945 0.031-1.281 0.063-2.09-0.129-2.434-0.574-0.937-0.832-1.715-1.785-2.336-2.852l0.035 0.129zm12.481-0.062 0.383 0.031-0.418-0.223-0.094 0.032c0 0.105 0.043 0.16 0.129 0.16zm0.988-0.383 0.481 0.254c0.257-0.02 0.3-0.106 0.129-0.254-0.063-0.024-0.129-0.043-0.192-0.066-0.043-0.02-0.074-0.043-0.098-0.063-0.019 0-0.039 0.012-0.062 0.031-0.086 0.02-0.172 0.055-0.258 0.098zm-14.496 0.316h0.418l-0.449-0.125 0.031 0.125zm-0.062-0.191 0.511 0.191c-0.043-0.082-0.105-0.148-0.191-0.191s-0.192-0.043-0.32 0z" inkscape:connector-curvature="0"/>
      <path id="path144" style="fill-rule:evenodd;fill:#706361" d="m27.969 24.446 0.894-1.086c-0.148 0.129-0.234 0.172-0.254 0.129-0.023-0.129 0.02-0.269 0.125-0.418 0.172-0.191 0.289-0.339 0.356-0.449 0.039-0.082 0.082-0.168 0.125-0.254-0.063 0.086-0.137 0.16-0.223 0.223-0.578 0.449-1.09 0.961-1.535 1.535-0.129 0.152-0.215 0.313-0.258 0.481l0.77-0.161zm-11.074-2.461-0.063-0.035h-0.129l0.289 0.196-0.031-0.067-0.031-0.062-0.035-0.032zm9.41 1.918c-0.129 0.364-0.426 0.512-0.899 0.45-0.765 0.019-1.504 0.031-2.207 0.031-0.789 0.043-1.554 0-2.304-0.129-0.02 0-0.04-0.012-0.063-0.031-0.172-0.02-0.332-0.055-0.48-0.098-0.254-0.039-0.469-0.148-0.641-0.316-0.254-0.301-0.488-0.621-0.703-0.961l-0.992-1.344c-0.278-0.215-0.618-0.344-1.024-0.387-0.64 0.086-1.281 0.078-1.922-0.031l-0.125 0.289c1.196-0.277 2.25-0.055 3.168 0.672 0.211 0.172 0.383 0.395 0.512 0.672 0.148 0.234 0.285 0.48 0.414 0.734 0.32 0.727 0.906 1.059 1.762 0.992 0.851 0.024 1.707 0.024 2.558 0 0.813-0.019 1.653-0.019 2.528 0 0.152-0.062 0.301-0.16 0.449-0.285 0.492-0.406 0.973-0.832 1.441-1.281 0.469-0.383 0.883-0.789 1.246-1.215 0.45-0.535 1.004-0.75 1.665-0.64 0.449 0.148 0.863 0.371 1.25 0.671-0.344-0.554-0.813-0.875-1.411-0.961-0.254 0.043-0.511 0.086-0.765 0.129-0.215 0.106-0.43 0.211-0.641 0.321-0.277 0.211-0.547 0.414-0.801 0.605l-0.258 0.258-0.351 0.449-1.277 1.375-0.129 0.031zm3.582-2.078-0.321-0.16 0.258 0.481 0.098-0.129c-0.086 0-0.129-0.055-0.129-0.16l0.094-0.032zm1.504 0.063-0.481-0.254-0.383-0.16h-0.254v0.062h-0.097v0.032c0 0.257 0.012 0.277 0.031 0.066l-0.031-0.066c0.148 0.023 0.351 0.097 0.609 0.222l-0.031 0.098-0.289-0.031c-0.086 0.019-0.129 0.019-0.129 0 0.019 0.086 0.086 0.148 0.191 0.191h0.321l0.543-0.16zm-15.008-0.063c-0.149 0.043-0.266 0.106-0.352 0.192l0.098 0.031 0.062 0.031c0-0.129 0.024-0.172 0.067-0.129h0.156l-0.031-0.125z" inkscape:connector-curvature="0"/>
      <path id="path146" style="fill-rule:evenodd;fill:#d1b9b5" d="m19.742 24.802c0.344 0.445 1.153 0.637 2.434 0.574 1.258-0.043 2.238-0.055 2.945-0.031 0.703 0.019 1.172-0.031 1.406-0.16l-0.543-0.321 0.45-0.031-6.692-0.031zm-4.285-3.043 0.16 0.098 0.735-0.098c0.128-0.043 0.234-0.043 0.32 0s0.148 0.109 0.191 0.191l0.032 0.035 0.035 0.032 0.031 0.062c0.402 0.086 0.437-0.051 0.094-0.414l-0.125-0.129c-0.598-0.234-1.09-0.16-1.473 0.223zm15.07-0.285 0.383 0.16c0.086-0.043 0.172-0.078 0.258-0.098l-0.895-0.16c-0.128 0.043-0.214 0.086-0.257 0.129l0.16 0.031 0.097-0.062v-0.098l0.254 0.098z" inkscape:connector-curvature="0"/>
    </g>
  </g>
<metadata><rdf:RDF><cc:Work><dc:format>image/svg+xml</dc:format><dc:type rdf:resource="http://purl.org/dc/dcmitype/StillImage"/><cc:license rdf:resource="http://creativecommons.org/licenses/publicdomain/"/><dc:publisher><cc:Agent rdf:about="http://openclipart.org/"><dc:title>Openclipart</dc:title></cc:Agent></dc:publisher></cc:Work><cc:License rdf:about="http://creativecommons.org/licenses/publicdomain/"><cc:permits rdf:resource="http://creativecommons.org/ns#Reproduction"/><cc:permits rdf:resource="http://creativecommons.org/ns#Distribution"/><cc:permits rdf:resource="http://creativecommons.org/ns#DerivativeWorks"/></cc:License></rdf:RDF></metadata></svg>
